0
SECTION
2
HEADER
9
$ACADVER
1
AC1009
9
$INSUNITS
70
4
9
$EXTMIN
10
0
20
0
30
0
9
$EXTMAX
10
200
20
150
30
0
0
ENDSEC
0
SECTION
2
TABLES
0
TABLE
2
LAYER
70
1
0
LAYER
2
0
70
0
62
7
6
CONTINUOUS
0
ENDTAB
0
ENDSEC
0
SECTION
2
ENTITIES
0
POLYLINE
8
0
66
1
70
1
10
0
20
0
30
0
0
VERTEX
8
0
10
0
20
0
30
0
0
VERTEX
8
0
10
200
20
0
30
0
0
VERTEX
8
0
10
200
20
60
30
0
0
VERTEX
8
0
10
60
20
60
30
0
0
VERTEX
8
0
10
60
20
150
30
0
0
VERTEX
8
0
10
0
20
150
30
0
0
SEQEND
8
0
0
CIRCLE
8
0
10
30
20
30
30
0
40
6
0
CIRCLE
8
0
10
30
20
120
30
0
40
6
0
ENDSEC
0
EOF
