0
SECTION
2
HEADER
9
$ACADVER
1
AC1009
9
$INSUNITS
70
4
9
$EXTMIN
10
0
20
0
30
0
9
$EXTMAX
10
120
20
80
30
0
0
ENDSEC
0
SECTION
2
TABLES
0
TABLE
2
LAYER
70
1
0
LAYER
2
0
70
0
62
7
6
CONTINUOUS
0
ENDTAB
0
ENDSEC
0
SECTION
2
ENTITIES
0
POLYLINE
8
0
66
1
70
1
10
0
20
0
30
0
0
VERTEX
8
0
10
0
20
0
30
0
0
VERTEX
8
0
10
120
20
0
30
0
0
VERTEX
8
0
10
120
20
80
30
0
0
VERTEX
8
0
10
0
20
80
30
0
0
SEQEND
8
0
0
CIRCLE
8
0
10
15
20
15
30
0
40
4
0
CIRCLE
8
0
10
105
20
15
30
0
40
4
0
CIRCLE
8
0
10
105
20
65
30
0
40
4
0
CIRCLE
8
0
10
15
20
65
30
0
40
4
0
ENDSEC
0
EOF
