0
SECTION
2
HEADER
9
$ACADVER
1
AC1009
9
$INSUNITS
70
4
9
$EXTMIN
10
-80
20
-80
30
0
9
$EXTMAX
10
80
20
80
30
0
0
ENDSEC
0
SECTION
2
TABLES
0
TABLE
2
LAYER
70
1
0
LAYER
2
0
70
0
62
7
6
CONTINUOUS
0
ENDTAB
0
ENDSEC
0
SECTION
2
ENTITIES
0
CIRCLE
8
0
10
0
20
0
30
0
40
80
0
CIRCLE
8
0
10
0
20
0
30
0
40
30
0
CIRCLE
8
0
10
55
20
0
30
0
40
6
0
CIRCLE
8
0
10
27.5
20
47.631397
30
0
40
6
0
CIRCLE
8
0
10
-27.5
20
47.631397
30
0
40
6
0
CIRCLE
8
0
10
-55
20
0
30
0
40
6
0
CIRCLE
8
0
10
-27.5
20
-47.631397
30
0
40
6
0
CIRCLE
8
0
10
27.5
20
-47.631397
30
0
40
6
0
ENDSEC
0
EOF
