0
SECTION
2
HEADER
9
$ACADVER
1
AC1009
9
$INSUNITS
70
4
9
$EXTMIN
10
0
20
0
30
0
9
$EXTMAX
10
140
20
90
30
0
0
ENDSEC
0
SECTION
2
TABLES
0
TABLE
2
LAYER
70
1
0
LAYER
2
0
70
0
62
7
6
CONTINUOUS
0
ENDTAB
0
ENDSEC
0
SECTION
2
ENTITIES
0
POLYLINE
8
0
66
1
70
1
10
0
20
0
30
0
0
VERTEX
8
0
10
15
20
0
30
0
0
VERTEX
8
0
10
125
20
0
30
0
42
0.414214
0
VERTEX
8
0
10
140
20
15
30
0
0
VERTEX
8
0
10
140
20
75
30
0
42
0.414214
0
VERTEX
8
0
10
125
20
90
30
0
0
VERTEX
8
0
10
15
20
90
30
0
42
0.414214
0
VERTEX
8
0
10
0
20
75
30
0
0
VERTEX
8
0
10
0
20
15
30
0
42
0.414214
0
SEQEND
8
0
0
CIRCLE
8
0
10
70
20
45
30
0
40
20
0
ENDSEC
0
EOF
